<svg width="250" height="200" fill="none" xmlns="http://www.w3.org/2000/svg">
  <path fill-rule="evenodd" clip-rule="evenodd" d="M63 134h91c.51 0 1.02-.06 1.5-.16.48.1.99.16 1.5.16h52a7 7 0 100-14h-6a7 7 0 110-14h19a7 7 0 100-14h-22a7 7 0 100-14h-64a7 7 0 100-14H79a7 7 0 100 14H39a7 7 0 100 14h25a7 7 0 110 14H24a7 7 0 100 14h39a7 7 0 100 14zm170-7a7 7 0 11-14 0 7 7 0 0114 0z" fill="#F3F7FF"/>
  <path fill-rule="evenodd" clip-rule="evenodd" d="M96 66h67l-6 9 8 6H94l9-6-7-9z" fill="#E8F0FE"/>
  <path d="M197.78 146.35l1.17-.42a1.25 1.25 0 00-2.35 0l1.18.42zm0-1.7l-1.18.42a1.25 1.25 0 002.35 0l-1.17-.42zm-26.03.85c0-.69.56-1.25 1.25-1.25v-2.5a3.75 3.75 0 00-3.75 3.75h2.5zm1.25 1.25c-.69 0-1.25-.56-1.25-1.25h-2.5a3.75 3.75 0 003.75 3.75v-2.5zm22.43 0H173v2.5h22.43v-2.5zm1.17-.82c-.17.48-.63.82-1.17.82v2.5c1.62 0 3-1.03 3.52-2.47l-2.35-.85zm3.53.82c-.54 0-1-.34-1.18-.82l-2.35.85a3.75 3.75 0 003.53 2.47v-2.5zm2.87 0h-2.87v2.5H203v-2.5zm1.25-1.25c0 .69-.56 1.25-1.25 1.25v2.5a3.75 3.75 0 003.75-3.75h-2.5zm-1.25-1.25c.69 0 1.25.56 1.25 1.25h2.5a3.75 3.75 0 00-3.75-3.75v2.5zm-2.87 0H203v-2.5h-2.87v2.5zm-1.18.82c.18-.48.64-.82 1.18-.82v-2.5c-1.63 0-3 1.03-3.53 2.47l2.35.85zm-3.52-.82c.54 0 1 .34 1.17.82l2.35-.85a3.75 3.75 0 00-3.52-2.47v2.5zm-22.43 0h22.43v-2.5H173v2.5zM57.13 143a2.5 2.5 0 00-2.5 2.5h2.5V143zm6.87 0h-6.87v2.5H64V143zm2.5 2.5A2.5 2.5 0 0064 143v2.5h2.5zM64 148a2.5 2.5 0 002.5-2.5H64v2.5zm-6.87 0H64v-2.5h-6.87v2.5zm-2.5-2.5a2.5 2.5 0 002.5 2.5v-2.5h-2.5zM70 143a2.5 2.5 0 00-2.5 2.5H70V143zm21.45 0H70v2.5h21.45V143zm2.5 2.5a2.5 2.5 0 00-2.5-2.5v2.5h2.5zm-2.5 2.5a2.5 2.5 0 002.5-2.5h-2.5v2.5zM70 148h21.45v-2.5H70v2.5zm-2.5-2.5A2.5 2.5 0 0070 148v-2.5h-2.5z" fill="#75A4FE"/>
  <path fill-rule="evenodd" clip-rule="evenodd" d="M93 123.22V83c0-1.66 1.37-3 3.04-3h69.48c1.1 0 1.98.9 1.98 2v73c0 2.2-1.77 4-3.96 4H96.96a3.98 3.98 0 01-3.95-4v-19m0-4.1v-4.5z" fill="#fff"/>
  <path d="M91.76 123.22a1.25 1.25 0 002.5 0h-2.5zm2.5 12.78a1.25 1.25 0 00-2.5 0h2.5zm-2.5-4.1a1.25 1.25 0 102.5 0h-2.5zm2.5-4.5a1.25 1.25 0 10-2.5 0h2.5zm0-4.19V83h-2.5v40.22h2.5zm0-40.21c0-.95.78-1.75 1.78-1.75v-2.5A4.27 4.27 0 0091.76 83h2.5zm1.78-1.75h69.48v-2.5H96.04v2.5zm69.48 0c.4 0 .73.32.73.75h2.5a3.24 3.24 0 00-3.23-3.25v2.5zm.73.75v73h2.5V82h-2.5zm0 73a2.73 2.73 0 01-2.7 2.75v2.5c2.88 0 5.2-2.36 5.2-5.25h-2.5zm-2.7 2.75H96.95v2.5h66.58v-2.5zm-66.59 0a2.73 2.73 0 01-2.7-2.75h-2.5a5.23 5.23 0 005.2 5.25v-2.5zm-2.7-2.75v-14.94h-2.5V155h2.5zm0-14.94V136h-2.5v4.06h2.5zm0-8.16v-4.5h-2.5v4.5h2.5z" fill="#75A4FE"/>
  <path d="M95 80V68c0-1.1.8-2 1.8-2h66.4c1 0 1.8.9 1.8 2v12" stroke="#75A4FE" stroke-width="2.5"/>
  <path fill-rule="evenodd" clip-rule="evenodd" d="M113.5 101a3.5 3.5 0 100-7 3.5 3.5 0 000 7zM146.5 101a3.5 3.5 0 100-7 3.5 3.5 0 000 7z" fill="#fff" stroke="#75A4FE" stroke-width="2.5"/>
  <path d="M146 101a16 16 0 11-32 0M96.06 67l7.1 7.01a1 1 0 01-.21 1.59L95 80M164.1 67.07L157.3 74a1 1 0 00.24 1.57l8.1 4.42" stroke="#75A4FE" stroke-width="2.5" stroke-linecap="round"/>
  <path d="M155.17 40.47l-.94-.83.94.83zm-11.1 12.45l-.94-.83.94.83zm.1 1.77l-.83.93.83-.93zm1.76-.1l.94.83-.94-.83zm11.1-12.46l.94.84-.94-.84zm-52.1-1.66l-.93.83.93-.83zm-1.86 1.66l.93-.83-.93.83zm11.1 12.46l-.94.83.94-.83zm1.76.1l.83.93-.83-.93zm.1-1.77l.94-.83-.94.83zM132.5 37a2.5 2.5 0 00-2.5-2.5V37h2.5zm0 16.76V37H130v16.76h2.5zm-2.5 2.5a2.5 2.5 0 002.5-2.5H130v2.5zm-2.5-2.5a2.5 2.5 0 002.5 2.5v-2.5h-2.5zm0-16.76v16.76h2.5V37h-2.5zm2.5-2.5a2.5 2.5 0 00-2.5 2.5h2.5v-2.5zm26.1 6.8l1.66-1.86a2.5 2.5 0 00-3.53.2l1.87 1.66zM145 53.76l11.1-12.46-1.87-1.66-11.1 12.45 1.87 1.67zm0 0l-1.87-1.67a2.5 2.5 0 00.2 3.53l1.67-1.86zm0 0l-1.66 1.86a2.5 2.5 0 003.53-.2L145 53.76zm11.1-12.46L145 53.76l1.87 1.66 11.1-12.45-1.87-1.67zm0 0l1.87 1.67a2.5 2.5 0 00-.2-3.53l-1.67 1.86zm-52.1 0l1.87-1.66a2.5 2.5 0 00-3.53-.2L104 41.3zm0 0l-1.66-1.86a2.5 2.5 0 00-.2 3.53L104 41.3zm11.1 12.46L104 41.3l-1.87 1.67 11.1 12.45 1.87-1.66zm0 0l-1.87 1.66a2.5 2.5 0 003.53.2l-1.66-1.86zm0 0l1.66 1.86a2.5 2.5 0 00.2-3.53l-1.86 1.67zM104 41.3l11.1 12.46 1.87-1.67-11.1-12.45L104 41.3z" fill="#A4C3FE"/>
</svg>
